G04 EAGLE Gerber RS-274X export*
G75*
%MOMM*%
%FSLAX34Y34*%
%LPD*%
%INBottom Copper*%
%IPPOS*%
%AMOC8*
5,1,8,0,0,1.08239X$1,22.5*%
G01*
%ADD10C,1.524000*%
%ADD11C,1.879600*%
%ADD12C,1.320800*%
%ADD13R,1.400000X1.800000*%
%ADD14R,3.200000X1.000000*%
%ADD15C,0.600000*%
%ADD16C,0.756400*%
%ADD17C,0.812800*%


D10*
X217170Y203200D02*
X201930Y203200D01*
X201930Y228600D02*
X217170Y228600D01*
X217170Y254000D02*
X201930Y254000D01*
X201930Y279400D02*
X217170Y279400D01*
X217170Y304800D02*
X201930Y304800D01*
X201930Y330200D02*
X217170Y330200D01*
X217170Y355600D02*
X201930Y355600D01*
X201930Y381000D02*
X217170Y381000D01*
D11*
X88900Y50800D03*
X88900Y127000D03*
X88900Y165100D03*
X88900Y241300D03*
X139700Y165100D03*
X139700Y241300D03*
X139700Y50800D03*
X139700Y127000D03*
D12*
X145796Y304800D02*
X159004Y304800D01*
X159004Y330200D02*
X145796Y330200D01*
X145796Y457200D02*
X159004Y457200D01*
X82804Y457200D02*
X69596Y457200D01*
X145796Y355600D02*
X159004Y355600D01*
X159004Y381000D02*
X145796Y381000D01*
X145796Y431800D02*
X159004Y431800D01*
X159004Y406400D02*
X145796Y406400D01*
X82804Y431800D02*
X69596Y431800D01*
X69596Y406400D02*
X82804Y406400D01*
X82804Y381000D02*
X69596Y381000D01*
X69596Y355600D02*
X82804Y355600D01*
X82804Y330200D02*
X69596Y330200D01*
X69596Y304800D02*
X82804Y304800D01*
D13*
X245600Y127000D03*
X211600Y127000D03*
X245600Y50800D03*
X211600Y50800D03*
D14*
X317500Y135220D03*
X317500Y118780D03*
X317500Y42580D03*
X317500Y59020D03*
D15*
X139700Y127000D02*
X139700Y165100D01*
X139700Y127000D02*
X211600Y127000D01*
X211600Y165100D01*
X211600Y201150D01*
X209550Y203200D01*
X211600Y165100D02*
X292100Y165100D01*
X317500Y139700D01*
X317500Y135220D01*
X152400Y355600D02*
X152400Y381000D01*
X209550Y381000D01*
X245600Y88900D02*
X245600Y50800D01*
X245600Y88900D02*
X245600Y127000D01*
X317500Y88900D02*
X317500Y59020D01*
X317500Y88900D02*
X317500Y118780D01*
X254000Y88900D02*
X245600Y88900D01*
X304800Y88900D02*
X317500Y88900D01*
D16*
X254000Y88900D03*
X304800Y88900D03*
D15*
X228600Y381000D02*
X209550Y381000D01*
X228600Y381000D02*
X241300Y368300D01*
X241300Y215900D02*
X266700Y190500D01*
X330200Y190500D01*
X355600Y165100D01*
X355600Y101600D01*
X342900Y88900D01*
X317500Y88900D01*
X241300Y215900D02*
X241300Y368300D01*
X209550Y330200D02*
X190500Y330200D01*
X165100Y304800D01*
X152400Y304800D01*
X190500Y304800D02*
X209550Y304800D01*
X190500Y304800D02*
X165100Y279400D01*
X139700Y279400D01*
X127000Y292100D01*
X127000Y317500D01*
X139700Y330200D01*
X152400Y330200D01*
X127000Y317500D02*
X127000Y393700D01*
X139700Y406400D01*
X152400Y406400D01*
X152400Y431800D01*
X139700Y50800D02*
X88900Y50800D01*
X139700Y50800D02*
X211600Y50800D01*
X237000Y25400D01*
D17*
X309280Y42580D02*
X317500Y42580D01*
D15*
X292100Y25400D02*
X237000Y25400D01*
X292100Y25400D02*
X309280Y42580D01*
X88900Y127000D02*
X88900Y165100D01*
X88900Y241300D02*
X139700Y241300D01*
M02*
