M48
;GenerationSoftware,Autodesk,EAGLE,9.6.2*%
;CreationDate,2026-02-11T10:42:41Z*%
FMAT,2
ICI,OFF
METRIC,TZ,000.000
T4C0.350
T3C0.813
T2C0.900
T1C1.016
%
G90
M71
T1
X20955Y20320
X20955Y22860
X20955Y25400
X20955Y27940
X20955Y30480
X20955Y33020
X20955Y35560
X20955Y38100
T2
X8890Y5080
X8890Y12700
X8890Y16510
X8890Y24130
X13970Y16510
X13970Y24130
X13970Y5080
X13970Y12700
T3
X15240Y30480
X15240Y33020
X15240Y45720
X7620Y45720
X15240Y35560
X15240Y38100
X15240Y43180
X15240Y40640
X7620Y43180
X7620Y40640
X7620Y38100
X7620Y35560
X7620Y33020
X7620Y30480
T4
X25400Y8890
X30480Y8890
M30